<svg width="63" height="44" viewBox="0 0 63 44" fill="none" xmlns="http://www.w3.org/2000/svg">
<path d="M7.584 18.336C6.208 18.336 4.88 18.168 3.6 17.832C2.336 17.48 1.304 17.032 0.504 16.488L2.064 12.984C2.816 13.464 3.68 13.864 4.656 14.184C5.648 14.488 6.632 14.64 7.608 14.64C8.264 14.64 8.792 14.584 9.192 14.472C9.592 14.344 9.88 14.184 10.056 13.992C10.248 13.784 10.344 13.544 10.344 13.272C10.344 12.888 10.168 12.584 9.816 12.36C9.464 12.136 9.008 11.952 8.448 11.808C7.888 11.664 7.264 11.52 6.576 11.376C5.904 11.232 5.224 11.048 4.536 10.824C3.864 10.6 3.248 10.312 2.688 9.96C2.128 9.592 1.672 9.12 1.32 8.544C0.968 7.952 0.792 7.208 0.792 6.312C0.792 5.304 1.064 4.392 1.608 3.576C2.168 2.76 3 2.104 4.104 1.608C5.208 1.112 6.584 0.863999 8.232 0.863999C9.336 0.863999 10.416 0.991999 11.472 1.248C12.544 1.488 13.496 1.848 14.328 2.328L12.864 5.856C12.064 5.424 11.272 5.104 10.488 4.896C9.704 4.672 8.944 4.56 8.208 4.56C7.552 4.56 7.024 4.632 6.624 4.776C6.224 4.904 5.936 5.08 5.76 5.304C5.584 5.528 5.496 5.784 5.496 6.072C5.496 6.44 5.664 6.736 6 6.96C6.352 7.168 6.808 7.344 7.368 7.488C7.944 7.616 8.568 7.752 9.24 7.896C9.928 8.04 10.608 8.224 11.28 8.448C11.968 8.656 12.592 8.944 13.152 9.312C13.712 9.664 14.16 10.136 14.496 10.728C14.848 11.304 15.024 12.032 15.024 12.912C15.024 13.888 14.744 14.792 14.184 15.624C13.64 16.44 12.816 17.096 11.712 17.592C10.624 18.088 9.248 18.336 7.584 18.336ZM16.8591 18V1.2H24.5391C26.0751 1.2 27.3951 1.448 28.4991 1.944C29.6191 2.44 30.4831 3.16 31.0911 4.104C31.6991 5.032 32.0031 6.136 32.0031 7.416C32.0031 8.68 31.6991 9.776 31.0911 10.704C30.4831 11.632 29.6191 12.352 28.4991 12.864C27.3951 13.36 26.0751 13.608 24.5391 13.608H19.4991L21.6111 11.544V18H16.8591ZM21.6111 12.048L19.4991 9.864H24.2511C25.2431 9.864 25.9791 9.648 26.4591 9.216C26.9551 8.784 27.2031 8.184 27.2031 7.416C27.2031 6.632 26.9551 6.024 26.4591 5.592C25.9791 5.16 25.2431 4.944 24.2511 4.944H19.4991L21.6111 2.76V12.048ZM1.464 41V23.192H6.024V41H1.464ZM16.5714 41V38.576L16.2594 37.976V33.512C16.2594 32.792 16.0354 32.24 15.5874 31.856C15.1554 31.456 14.4594 31.256 13.4994 31.256C12.8754 31.256 12.2434 31.36 11.6034 31.568C10.9634 31.76 10.4194 32.032 9.97144 32.384L8.43544 29.288C9.17144 28.808 10.0514 28.44 11.0754 28.184C12.1154 27.912 13.1474 27.776 14.1714 27.776C16.2834 27.776 17.9154 28.264 19.0674 29.24C20.2354 30.2 20.8194 31.712 20.8194 33.776V41H16.5714ZM12.7314 41.216C11.6914 41.216 10.8114 41.04 10.0914 40.688C9.37144 40.336 8.81944 39.856 8.43544 39.248C8.06744 38.64 7.88344 37.96 7.88344 37.208C7.88344 36.408 8.08344 35.72 8.48344 35.144C8.89944 34.552 9.53144 34.104 10.3794 33.8C11.2274 33.48 12.3234 33.32 13.6674 33.32H16.7394V35.696H14.2914C13.5554 35.696 13.0354 35.816 12.7314 36.056C12.4434 36.296 12.2994 36.616 12.2994 37.016C12.2994 37.416 12.4514 37.736 12.7554 37.976C13.0594 38.216 13.4754 38.336 14.0034 38.336C14.4994 38.336 14.9474 38.216 15.3474 37.976C15.7634 37.72 16.0674 37.336 16.2594 36.824L16.8834 38.504C16.6434 39.4 16.1714 40.08 15.4674 40.544C14.7794 40.992 13.8674 41.216 12.7314 41.216ZM31.5218 41.216C30.3538 41.216 29.3778 40.976 28.5938 40.496C27.8258 40.016 27.2498 39.28 26.8658 38.288C26.4818 37.296 26.2898 36.024 26.2898 34.472C26.2898 32.952 26.4898 31.696 26.8898 30.704C27.3058 29.712 27.9058 28.976 28.6898 28.496C29.4738 28.016 30.4178 27.776 31.5218 27.776C32.7058 27.776 33.7778 28.048 34.7378 28.592C35.7138 29.136 36.4818 29.912 37.0418 30.92C37.6178 31.912 37.9058 33.096 37.9058 34.472C37.9058 35.864 37.6178 37.064 37.0418 38.072C36.4818 39.064 35.7138 39.84 34.7378 40.4C33.7778 40.944 32.7058 41.216 31.5218 41.216ZM23.3378 41V23.192H27.8978V30.176L27.6578 34.472L27.6818 38.768V41H23.3378ZM30.5618 37.592C31.0738 37.592 31.5298 37.472 31.9298 37.232C32.3458 36.992 32.6738 36.64 32.9138 36.176C33.1698 35.696 33.2978 35.128 33.2978 34.472C33.2978 33.816 33.1698 33.264 32.9138 32.816C32.6738 32.352 32.3458 32 31.9298 31.76C31.5298 31.52 31.0738 31.4 30.5618 31.4C30.0498 31.4 29.5858 31.52 29.1698 31.76C28.7698 32 28.4418 32.352 28.1858 32.816C27.9458 33.264 27.8258 33.816 27.8258 34.472C27.8258 35.128 27.9458 35.696 28.1858 36.176C28.4418 36.64 28.7698 36.992 29.1698 37.232C29.5858 37.472 30.0498 37.592 30.5618 37.592ZM44.3932 41.216C43.2892 41.216 42.2092 41.088 41.1532 40.832C40.1132 40.576 39.2732 40.256 38.6332 39.872L40.0012 36.752C40.6092 37.12 41.3212 37.416 42.1372 37.64C42.9532 37.848 43.7532 37.952 44.5372 37.952C45.3052 37.952 45.8332 37.872 46.1212 37.712C46.4252 37.552 46.5772 37.336 46.5772 37.064C46.5772 36.808 46.4332 36.624 46.1452 36.512C45.8732 36.384 45.5052 36.288 45.0412 36.224C44.5932 36.16 44.0972 36.088 43.5532 36.008C43.0092 35.928 42.4572 35.824 41.8972 35.696C41.3532 35.552 40.8492 35.344 40.3852 35.072C39.9372 34.784 39.5772 34.4 39.3052 33.92C39.0332 33.44 38.8972 32.832 38.8972 32.096C38.8972 31.264 39.1372 30.528 39.6172 29.888C40.1132 29.232 40.8332 28.72 41.7772 28.352C42.7212 27.968 43.8732 27.776 45.2332 27.776C46.1452 27.776 47.0652 27.872 47.9932 28.064C48.9372 28.24 49.7292 28.512 50.3692 28.88L49.0012 31.976C48.3612 31.608 47.7212 31.36 47.0812 31.232C46.4412 31.088 45.8332 31.016 45.2572 31.016C44.4892 31.016 43.9452 31.104 43.6252 31.28C43.3212 31.456 43.1692 31.672 43.1692 31.928C43.1692 32.184 43.3052 32.384 43.5772 32.528C43.8492 32.656 44.2092 32.76 44.6572 32.84C45.1212 32.904 45.6252 32.976 46.1692 33.056C46.7132 33.12 47.2572 33.224 47.8012 33.368C48.3612 33.512 48.8652 33.728 49.3132 34.016C49.7772 34.288 50.1452 34.664 50.4172 35.144C50.6892 35.608 50.8252 36.208 50.8252 36.944C50.8252 37.744 50.5772 38.464 50.0812 39.104C49.6012 39.744 48.8812 40.256 47.9212 40.64C46.9772 41.024 45.8012 41.216 44.3932 41.216ZM50.9663 43.496V41H62.9663V43.496H50.9663Z" fill="#343434"/>
</svg>
